<?xml version="1.0" encoding="UTF-8"?>
<svg version="1.1" xmlns="http://www.w3.org/2000/svg" width="173" height="61">
<path d="M0 0 C-0.01160156 1.16917969 -0.02320313 2.33835937 -0.03515625 3.54296875 C-0.04453913 5.09114423 -0.0536388 6.63932145 -0.0625 8.1875 C-0.07506836 9.34088867 -0.07506836 9.34088867 -0.08789062 10.51757812 C-0.10499779 14.50354707 0.09391519 18.09741424 1 22 C1 24.9478355 0.60525618 27.48294153 0.0625 30.375 C-0.11152344 31.31085937 -0.28554688 32.24671875 -0.46484375 33.2109375 C-0.64144531 34.13132813 -0.81804688 35.05171875 -1 36 C-1.14566406 36.92039063 -1.29132812 37.84078125 -1.44140625 38.7890625 C-1.62574219 39.51867188 -1.81007812 40.24828125 -2 41 C-2.99 41.495 -2.99 41.495 -4 42 C-4.33 42.99 -4.66 43.98 -5 45 C-4.34 45 -3.68 45 -3 45 C-3 45.66 -3 46.32 -3 47 C-9.34241995 48.15316726 -15.56688704 48.09507063 -22 48 C-22 47.34 -22 46.68 -22 46 C-24.31 45.34 -26.62 44.68 -29 44 C-29.12375 43.401875 -29.2475 42.80375 -29.375 42.1875 C-29.95475985 39.73768652 -29.95475985 39.73768652 -32 37 C-32.825 36.67 -33.65 36.34 -34.5 36 C-37 35 -37 35 -39 32 C-40.95385067 31.21011855 -40.95385067 31.21011855 -43.125 30.8125 C-44.40375 30.544375 -45.6825 30.27625 -47 30 C-47 29.34 -47 28.68 -47 28 C-45.35 28 -43.7 28 -42 28 C-44.475 27.01 -44.475 27.01 -47 26 C-47.625 22.625 -47.625 22.625 -48 19 C-45.33846181 16.33846181 -42.64481431 15.84195752 -39.09375 14.78125 C-36.82170857 14.09857013 -36.82170857 14.09857013 -35 12 C-34.01 12 -33.02 12 -32 12 C-32.33 10.02 -32.66 8.04 -33 6 C-30 4 -30 4 -26.875 3.5 C-25.92625 3.335 -24.9775 3.17 -24 3 C-23.67 2.34 -23.34 1.68 -23 1 C-16.06700281 -1.83622612 -7.11186564 -2.37062188 0 0 Z M-4 3 C-3 5 -3 5 -3 5 Z M-5 6 C-4 8 -4 8 -4 8 Z M-43 18 C-43 18.33 -43 18.66 -43 19 C-40.03 19 -37.06 19 -34 19 C-34 18.67 -34 18.34 -34 18 C-36.97 18 -39.94 18 -43 18 Z M-47 21 C-46 23 -46 23 -46 23 Z M-18 28 C-17 30 -17 30 -17 30 Z M-31 30 C-31 31.65 -31 33.3 -31 35 C-30.67 35 -30.34 35 -30 35 C-30 33.35 -30 31.7 -30 30 C-30.33 30 -30.66 30 -31 30 Z M-22 31 C-21 35 -21 35 -21 35 Z M-18 35 C-17 37 -17 37 -17 37 Z " fill="#000101" transform="translate(48,7)"/>
<path d="M0 0 C1.0209375 0.7425 1.0209375 0.7425 2.0625 1.5 C1.46481918 7.77564861 -0.84843718 11.65963513 -5.5625 15.8125 C-9.57571684 18.66399618 -11.97451518 18.90680203 -16.9375 18.5 C-21.11735939 17.0041403 -23.46647325 15.20654012 -25.9375 11.5 C-26.98199911 8.36650268 -26.87173645 7.51031744 -25.9375 4.5 C-25.37160156 4.37882813 -24.80570313 4.25765625 -24.22265625 4.1328125 C-23.48917969 3.96523437 -22.75570313 3.79765625 -22 3.625 C-20.90365234 3.38136719 -20.90365234 3.38136719 -19.78515625 3.1328125 C-17.73049706 2.67038477 -17.73049706 2.67038477 -16.9375 0.5 C-11.1135494 -1.59662221 -5.6949876 -2.90807878 0 0 Z " fill="#776FEE" transform="translate(41.9375,7.5)"/>
<path d="M0 0 C1 1 1 1 1.0625 3.5625 C1.041875 4.366875 1.02125 5.17125 1 6 C1.66 6.33 2.32 6.66 3 7 C2.57424494 9.23143965 2.13389613 11.46009775 1.6875 13.6875 C1.44386719 14.92886719 1.20023438 16.17023437 0.94921875 17.44921875 C0.05181291 20.80618134 -1.05396791 23.14909024 -3 26 C-2.34 26 -1.68 26 -1 26 C-1 26.66 -1 27.32 -1 28 C-4.125 28.9375 -4.125 28.9375 -8 29 C-11.05052116 26.54338562 -13.25489816 23.49020369 -15 20 C-16.03032087 10.16779511 -16.03032087 10.16779511 -14.0234375 5.9453125 C-9.92085065 0.88629436 -6.3568329 -0.42378886 0 0 Z " fill="#1EC4DC" transform="translate(46,26)"/>
<path d="M0 0 C5.30643985 0.05035767 8.29927281 0.60026485 12.3125 4.3125 C13.09625 5.034375 13.88 5.75625 14.6875 6.5 C16.96228066 10.43712037 17.03475483 13.86274613 16.3125 18.3125 C14.8125 20.875 14.8125 20.875 13.3125 22.3125 C10.9375 22 10.9375 22 8.3125 21.3125 C7.6525 20.3225 6.9925 19.3325 6.3125 18.3125 C5.4875 17.9825 4.6625 17.6525 3.8125 17.3125 C1.3125 16.3125 1.3125 16.3125 -0.6875 13.3125 C-2.64135067 12.52261855 -2.64135067 12.52261855 -4.8125 12.125 C-6.09125 11.856875 -7.37 11.58875 -8.6875 11.3125 C-8.6875 10.6525 -8.6875 9.9925 -8.6875 9.3125 C-7.0375 9.3125 -5.3875 9.3125 -3.6875 9.3125 C-6.1625 8.3225 -6.1625 8.3225 -8.6875 7.3125 C-6.40146931 0.14960383 -6.40146931 0.14960383 0 0 Z M7.3125 11.3125 C7.3125 12.9625 7.3125 14.6125 7.3125 16.3125 C7.6425 16.3125 7.9725 16.3125 8.3125 16.3125 C8.3125 14.6625 8.3125 13.0125 8.3125 11.3125 C7.9825 11.3125 7.6525 11.3125 7.3125 11.3125 Z " fill="#F26FB9" transform="translate(9.6875,25.6875)"/>
<path d="M0 0 C0 1.65 0 3.3 0 5 C-0.99 5.33 -1.98 5.66 -3 6 C-3.33 8.64 -3.66 11.28 -4 14 C-5.65 14 -7.3 14 -9 14 C-9.33 10.7 -9.66 7.4 -10 4 C-10.61488281 5.49853516 -10.61488281 5.49853516 -11.2421875 7.02734375 C-11.7861073 8.33087569 -12.33039735 9.63425319 -12.875 10.9375 C-13.14441406 11.59685547 -13.41382812 12.25621094 -13.69140625 12.93554688 C-15.7734375 17.88671875 -15.7734375 17.88671875 -18 19 C-19.99960012 19.039992 -22.00047242 19.04346799 -24 19 C-24.33 18.34 -24.66 17.68 -25 17 C-24.67 16.34 -24.34 15.68 -24 15 C-22.68 15 -21.36 15 -20 15 C-21.65 10.38 -23.3 5.76 -25 1 C-23.35 1 -21.7 1 -20 1 C-19.01 2.98 -18.02 4.96 -17 7 C-16.773125 6.030625 -16.54625 5.06125 -16.3125 4.0625 C-14 1 -14 1 -10.94140625 0.37890625 C-7.28670338 0.11871382 -3.6629867 0 0 0 Z " fill="#FFFFFF" transform="translate(95,9)"/>
<path d="M0 0 C1.32 0 2.64 0 4 0 C4.33 1.98 4.66 3.96 5 6 C5.70125 5.01 6.4025 4.02 7.125 3 C9.32959535 0.30900395 9.64418661 0.04028076 13.3125 -0.375 C14.199375 -0.25125 15.08625 -0.1275 16 0 C15.154375 0.9075 14.30875 1.815 13.4375 2.75 C11.41046826 5.0972369 11.41046826 5.0972369 10.9375 8.0625 C12.3398965 10.61981126 14.15963895 12.74407356 16 15 C16 15.66 16 16.32 16 17 C13.1875 17.25 13.1875 17.25 10 17 C8.25 15 8.25 15 7 13 C6.34 13 5.68 13 5 13 C4.67 14.32 4.34 15.64 4 17 C2.68 17 1.36 17 0 17 C0 11.39 0 5.78 0 0 Z " fill="#FFFFFF" transform="translate(56,6)"/>
<path d="M0 0 C2.82866115 0.38078131 4.55973572 0.62800592 7 2 C9.79229814 6.14714102 11.36183131 11.05419266 12 16 C12.66 16 13.32 16 14 16 C14 16.66 14 17.32 14 18 C10.875 18.9375 10.875 18.9375 7 19 C3.94947884 16.54338562 1.74510184 13.49020369 0 10 C-0.06996014 8.29297265 -0.08440154 6.58331997 -0.0625 4.875 C-0.05347656 3.96492188 -0.04445313 3.05484375 -0.03515625 2.1171875 C-0.02355469 1.41851562 -0.01195313 0.71984375 0 0 Z " fill="#4BDECA" transform="translate(31,36)"/>
<path d="M0 0 C2 3 2 3 1.9375 6.5 C1 10 1 10 -1.1875 12 C-4.6445605 13.22917707 -6.50668376 13.0631832 -10 12 C-11.875 10.875 -11.875 10.875 -13 9 C-13.65044248 2.92920354 -13.65044248 2.92920354 -11.6875 0.125 C-7.40773117 -2.72817922 -4.60169066 -1.67334206 0 0 Z M-6 2 C-6.99 2.66 -7.98 3.32 -9 4 C-8.34 5.65 -7.68 7.3 -7 9 C-5.68 8.34 -4.36 7.68 -3 7 C-3.34786708 5.02463255 -3.34786708 5.02463255 -4 3 C-4.66 2.67 -5.32 2.34 -6 2 Z " fill="#FFFFFF" transform="translate(109,11)"/>
<path d="M0 0 C5.48691927 0.0196195 8.23649157 0.6893814 12.3125 4.3125 C10.296875 6.81640625 10.296875 6.81640625 7.3125 9.3125 C4.44131765 9.57378961 2.353439 9.58609574 -0.4375 9.25 C-1.46423828 9.16975586 -1.46423828 9.16975586 -2.51171875 9.08789062 C-4.484375 8.90234375 -4.484375 8.90234375 -7.6875 8.3125 C-8.0175 7.6525 -8.3475 6.9925 -8.6875 6.3125 C-6.73559333 0.59620188 -5.99363607 0.14007268 0 0 Z " fill="#F1A592" transform="translate(9.6875,25.6875)"/>
<path d="M0 0 C1.65 0.33 3.3 0.66 5 1 C5.8125 3 5.8125 3 6 6 C3.81285776 10.95294542 0.66977815 15.17355533 -4 18 C-4.99 17.67 -5.98 17.34 -7 17 C-7.49301761 10.7140255 -7.49301761 10.7140255 -5.1875 7.375 C-4.465625 6.59125 -3.74375 5.8075 -3 5 C-1.9731657 3.3497306 -0.96432076 1.68756133 0 0 Z " fill="#AA90F5" transform="translate(38,7)"/>
<path d="M0 0 C-2.75 4.875 -2.75 4.875 -5 6 C-5.2475 6.639375 -5.495 7.27875 -5.75 7.9375 C-7.55317715 10.9127423 -9.7381376 11.14907937 -13 12 C-13 11.34 -13 10.68 -13 10 C-16.08809695 8.23537317 -17.23312136 8 -21 8 C-21.66 8 -22.32 8 -23 8 C-23.33 8.66 -23.66 9.32 -24 10 C-23.67 8.68 -23.34 7.36 -23 6 C-22.43410156 5.87882813 -21.86820313 5.75765625 -21.28515625 5.6328125 C-20.55167969 5.46523437 -19.81820313 5.29765625 -19.0625 5.125 C-17.96615234 4.88136719 -17.96615234 4.88136719 -16.84765625 4.6328125 C-14.79299706 4.17038477 -14.79299706 4.17038477 -14 2 C-9.20867943 0.27512459 -5.07283639 -0.20705455 0 0 Z " fill="#010101" transform="translate(39,6)"/>
<path d="M0 0 C2.1640625 -0.29296875 2.1640625 -0.29296875 4.625 -0.1875 C5.44226562 -0.16042969 6.25953125 -0.13335937 7.1015625 -0.10546875 C8.04128906 -0.05326172 8.04128906 -0.05326172 9 0 C9.33 0.99 9.66 1.98 10 3 C7.36 3 4.72 3 2 3 C2 3.99 2 4.98 2 6 C6.455 7.98 6.455 7.98 11 10 C11.3125 12.3125 11.3125 12.3125 11 15 C8.9375 16.875 8.9375 16.875 6 18 C2.1875 17.6875 2.1875 17.6875 -1 17 C-1.33 15.68 -1.66 14.36 -2 13 C0.97 13.33 3.94 13.66 7 14 C7.33 13.01 7.66 12.02 8 11 C5.03 10.01 2.06 9.02 -1 8 C-1.625 5.6875 -1.625 5.6875 -2 3 C-1.34 2.01 -0.68 1.02 0 0 Z " fill="#FFFFFF" transform="translate(57,35)"/>
<path d="M0 0 C0.66 0.33 1.32 0.66 2 1 C1.57764318 3.29450585 1.13663083 5.58558438 0.6875 7.875 C0.44386719 9.15117188 0.20023438 10.42734375 -0.05078125 11.7421875 C-1 15 -1 15 -4 17 C-8.88586957 10.22282609 -8.88586957 10.22282609 -9 6 C-6.91897381 2.81725406 -3.41598634 1.45361121 0 0 Z " fill="#000303" transform="translate(47,32)"/>
<path d="M0 0 C2.4375 1.5625 2.4375 1.5625 4 4 C4.0625 7.5625 4.0625 7.5625 3 11 C0.8125 13.0625 0.8125 13.0625 -2 14 C-5.1875 13.375 -5.1875 13.375 -8 12 C-10 9 -10 9 -9.8125 5.4375 C-8.47838541 -0.20683097 -5.29818245 -0.64875703 0 0 Z M-7 4 C-7.41666667 6.5 -7.41666667 6.5 -7 9 C-6.34 9.66 -5.68 10.32 -5 11 C-1.69316534 10.71016731 -1.69316534 10.71016731 1 9 C1.2500773 6.54190002 1.2500773 6.54190002 1 4 C0.34 3.34 -0.32 2.68 -1 2 C-4.18490007 1.7226499 -4.18490007 1.7226499 -7 4 Z " fill="#FFFFFF" transform="translate(133,39)"/>
<path d="M0 0 C2.375 1.0625 2.375 1.0625 4 3 C4.5625 6.4375 4.5625 6.4375 4 10 C1.875 12.5 1.875 12.5 -1 14 C-4.125 14.0625 -4.125 14.0625 -7 13 C-9.29492223 10.33492902 -10.04299299 8.90285284 -9.875 5.375 C-7.94244944 0.12950563 -5.49423454 -0.67276341 0 0 Z M-5.75 3.1875 C-7.2842979 4.99648167 -7.2842979 4.99648167 -6.75 7.625 C-6.22254355 9.9312407 -6.22254355 9.9312407 -5 11 C-3.33382885 11.04063832 -1.66611905 11.042721 0 11 C1.29042763 8.73398135 1.29042763 8.73398135 2 6 C0.94106029 3.61557197 0.94106029 3.61557197 -1 2 C-3.9387397 1.71924929 -3.9387397 1.71924929 -5.75 3.1875 Z " fill="#FFFFFF" transform="translate(79,39)"/>
<path d="M0 0 C1.9453125 -0.29296875 1.9453125 -0.29296875 4.125 -0.1875 C5.40375 -0.125625 6.6825 -0.06375 8 0 C8 0.99 8 1.98 8 3 C6.02 3 4.04 3 2 3 C1.67 3.66 1.34 4.32 1 5 C2.423125 5.2165625 2.423125 5.2165625 3.875 5.4375 C7 6 7 6 9 7 C9 8.65 9 10.3 9 12 C6.24075815 13.80411967 5.11027897 14.0127245 1.75 13.625 C0.38875 13.315625 0.38875 13.315625 -1 13 C-1 12.01 -1 11.02 -1 10 C1.31 10 3.62 10 6 10 C6 9.67 6 9.34 6 9 C3.69 8.34 1.38 7.68 -1 7 C-1.625 5.1875 -1.625 5.1875 -2 3 C-1.34 2.01 -0.68 1.02 0 0 Z " fill="#FFFFFF" transform="translate(156,39)"/>
<path d="M0 0 C0.99 0 1.98 0 3 0 C3.33 3.3 3.66 6.6 4 10 C5.65 9.67 7.3 9.34 9 9 C9.33 6.03 9.66 3.06 10 0 C10.66 0 11.32 0 12 0 C12 4.29 12 8.58 12 13 C8.3708055 13.78276744 5.68457564 14.17478527 2.0625 13.25 C-0.55085938 10.3990625 -0.30272782 9.10899276 -0.3125 5.3125 C-0.23205586 3.54043055 -0.13513292 1.7687398 0 0 Z " fill="#FFFFFF" transform="translate(92,39)"/>
<path d="M0 0 C1.423125 -0.061875 2.84625 -0.12375 4.3125 -0.1875 C5.51326172 -0.23970703 5.51326172 -0.23970703 6.73828125 -0.29296875 C9 0 9 0 10.78125 1.1875 C12.42341401 3.62969263 12.30107677 5.27236294 12.1875 8.1875 C12.16042969 9.08855469 12.13335937 9.98960938 12.10546875 10.91796875 C12.07066406 11.60503906 12.03585938 12.29210938 12 13 C11.01 13 10.02 13 9 13 C9 9.7 9 6.4 9 3 C7.02 3.33 5.04 3.66 3 4 C2.67 6.97 2.34 9.94 2 13 C1.34 13 0.68 13 0 13 C0 8.71 0 4.42 0 0 Z " fill="#FFFFFF" transform="translate(140,39)"/>
<path d="M0 0 C2.29160319 -0.02692484 4.58329546 -0.04636124 6.875 -0.0625 C8.15117187 -0.07410156 9.42734375 -0.08570313 10.7421875 -0.09765625 C14 0 14 0 16 1 C16 3.31 16 5.62 16 8 C15.01 8.33 14.02 8.66 13 9 C12.34 8.21625 11.68 7.4325 11 6.625 C7.26279291 3.3549438 4.81602145 2.89790231 0 2 C0 1.34 0 0.68 0 0 Z " fill="#000000" transform="translate(1,35)"/>
<path d="M0 0 C0.66 0 1.32 0 2 0 C2 0.99 2 1.98 2 3 C3.32 3 4.64 3 6 3 C6 3.66 6 4.32 6 5 C4.68 5 3.36 5 2 5 C2.33 7.64 2.66 10.28 3 13 C4.32 13.33 5.64 13.66 7 14 C7 14.66 7 15.32 7 16 C5.1875 16.625 5.1875 16.625 3 17 C2.01 16.34 1.02 15.68 0 15 C-0.29296875 12.6171875 -0.29296875 12.6171875 -0.1875 9.875 C-0.16042969 8.96492188 -0.13335937 8.05484375 -0.10546875 7.1171875 C-0.07066406 6.41851562 -0.03585938 5.71984375 0 5 C-0.99 5 -1.98 5 -3 5 C-3 4.34 -3 3.68 -3 3 C-2.01 3 -1.02 3 0 3 C0 2.01 0 1.02 0 0 Z " fill="#FFFFFF" transform="translate(109,36)"/>
<path d="M0 0 C0.99 0 1.98 0 3 0 C3 4.29 3 8.58 3 13 C2.01 13 1.02 13 0 13 C0 8.71 0 4.42 0 0 Z " fill="#FFFFFF" transform="translate(118,39)"/>
<path d="M0 0 C0.66 0 1.32 0 2 0 C2 5.94 2 11.88 2 18 C1.34 18 0.68 18 0 18 C0 12.06 0 6.12 0 0 Z " fill="#FFFFFF" transform="translate(86,34)"/>
<path d="M0 0 C0.99 0 1.98 0 3 0 C3 0.99 3 1.98 3 3 C2.01 3 1.02 3 0 3 C0 2.01 0 1.02 0 0 Z " fill="#FFFFFF" transform="translate(118,34)"/>
<path d="" fill="#000000" transform="translate(0,0)"/>
<path d="" fill="#000000" transform="translate(0,0)"/>
<path d="" fill="#000000" transform="translate(0,0)"/>
<path d="" fill="#000000" transform="translate(0,0)"/>
</svg>
